<?xml version="1.0" encoding="utf-8"?>
<!-- Generator: Adobe Illustrator 16.0.0, SVG Export Plug-In . SVG Version: 6.00 Build 0)  -->
<!DOCTYPE svg PUBLIC "-//W3C//DTD SVG 1.1//EN" "http://www.w3.org/Graphics/SVG/1.1/DTD/svg11.dtd">
<svg version="1.1" id="Layer_1" xmlns="http://www.w3.org/2000/svg" xmlns:xlink="http://www.w3.org/1999/xlink" x="0px" y="0px"
	 width="1024px" height="768px" viewBox="0 0 1024 768" enable-background="new 0 0 1024 768" xml:space="preserve">
<g id="_x30_4_KOPIE">
	<polyline display="none" fill="none" stroke="#37353E" stroke-width="3" stroke-miterlimit="10" points="474.799,245 
		354.369,642.5 595.799,642.5 475.369,245 	"/>
	
		<rect x="314.771" y="295.171" display="none" fill="none" stroke="#37353E" stroke-width="3" stroke-miterlimit="10" width="335.657" height="335.658"/>
	<polygon fill="#37353E" points="342.601,595.523 422.114,330.479 475.123,330.479 395.61,595.523 	"/>
	<polygon fill="#A5B7BE" points="475.123,330.479 491.026,383.486 607.645,383.486 607.645,330.479 	"/>
	<polygon fill="#218B7D" points="506.929,436.496 607.645,436.496 607.645,489.503 522.831,489.503 	"/>
	<polygon fill="#00535A" points="538.734,542.514 554.637,595.523 607.645,595.523 607.645,542.514 	"/>
</g>
<radialGradient id="SVGID_1_" cx="474.3335" cy="438.1768" r="172.5259" gradientUnits="userSpaceOnUse">
	<stop  offset="0" style="stop-color:#A5B7BE"/>
	<stop  offset="0.6502" style="stop-color:#218B7D"/>
	<stop  offset="1" style="stop-color:#00535A"/>
</radialGradient>
<path fill="url(#SVGID_1_)" d="M489,429.25c0.531,1.943,5.854,37.458,6.063,42.937c0.205,5.48,0.562,4.043-0.438,13.751
	s-2.224,10.317-3.98,14.646c-1.756,4.336-3.17,9.367-8.486,16.676c-5.314,7.311-10.318,14.512-13.065,16.729
	s-9.975,7.48-8.158,9.666c1.817,2.188,8.568,24.591,10.608,27.353c2.041,2.764,6.224,8.568,8.467,11.457
	c2.251,2.891,0.268,10.364,2.879,13.449s3.278,3.248,4.189,10.23c-2.911,2.688,10.102,22.909,11.255,22.94
	c1.153,0.027,3.636,3.294,4.542,3.917c0.271,0.475,3.132,1.393,4.493,2.309c1.365,0.92,1.715,2.17,3.131,3.354
	c1.412,1.184,2.501,1.703,4.401,2.816c1.898,1.119,3.238,3.342,3.238,3.342s1.547,1.906,1.979,2.916
	c0.435,1.004,0.846,2.16,1.703,3.164c0.858,1.006,2.364,0.705,3.481,0.971c1.113,0.262,2.57,0.809,2.752,2.061
	c0.182,1.256-0.132,2.129,0.456,3.127c0.591,0.994,1.827,1.529,3.362,2.119c1.539,0.596,3.482-0.41,5.182-1.434
	c2.225-1.135-3.246-4.35,0.145-5.01c3.387-0.658,2.242,0.662,4.432,1.479c2.189,0.809,5.551-1.602,6.531-2.408
	c1.518-1.164-0.924-3.158,0.672-4.088c3.539-1.414,3.838-3.02,4.326-4.98c0.49-1.965-2.563-11.996-4.244-14.014
	c-2.129-2.447-6.131-0.4-8.357-2.59c-2.219-2.188,0.213-4.684,0.137-7.762c-0.072-3.084,3.568-5.365,3.908-9.459
	c0.346-4.096-4.947-19.193-4.947-19.193s-11.245-34.658-11.971-36.594c-0.723-1.936-2.806-1.596-4.936-1.041
	c-4.333,0.831-6.818,1.537-7.042,1.583c-2.36,1.316-1.041,3.833-1.041,3.833s9.901,33.886,9.583,35.542
	c-5.292-10.791-9.434-9.11-9.434-9.11s-2.52,0.082-3.6,1.119c-1.079,1.039-1.268,1.303-2.517,2.424
	c-0.575,0.713-4.731,0.965-3.95-0.891s-0.009-6.169-1.25-7.917s-2.07-3.61-5.923-7.796c-5.142-2.885-4.739-6.279-11.765-12.986
	c-1.183-1.242-1.88-0.824-4.146-6.008c-1.426-2.7-0.707-5.666-0.285-9.162c0.423-3.496,3.868-4.966,5.618-6.882
	s1.935-3.352,2.705-5.566c0.775-2.215,6.142-17.746,7.212-18.725c1.067-0.984,3.192-3.822,6.35-5.031
	c1.084-0.365,3.076-1.381,2.458-3.617c-0.615-2.242-4.975-2.894-5.725-23.644c-2.046-16.553-8.69-45.872-8.75-51.141
	c-0.016-0.672-0.313-1.125-0.984-1.203C489.844,426.906,488.467,427.305,489,429.25z M517.36,641.227
	c0.385,0.262,3.277,1.865,6.21,0.676c2.932-1.191,4.381,2.201,5.019,3.311c0.64,1.111,2.914,3.498,0.776,5.566
	c-0.428,0.314-5.771,0.502-6.678-0.967c-2.663-5.332-5.668-7.738-5.954-8.121C516.445,641.318,516.97,640.971,517.36,641.227z
	 M512.19,634.141c0.754,0.484,4.113,1.799,5.571,2.006c1.459,0.205,3.183,0.348,4.007,0.885c0.818,0.535,1.887,1.455,1.608,2.285
	c-0.277,0.824-1.17,0.131-3.79-0.025c-2.618-0.154-7.373-4.453-7.732-4.715C511.492,634.313,511.432,633.662,512.19,634.141z"/>
<g display="none">
	<polyline display="inline" fill="none" stroke="#37353E" stroke-miterlimit="10" points="562,630.5 659,630.5 618.111,491.954 	"/>
	<polyline display="inline" fill="none" stroke="#37353E" stroke-miterlimit="10" points="474.637,330.523 461.91,288.102 
		392.751,287.927 291.304,630.5 471,630.5 	"/>
</g>
<g>
	<polyline fill="none" stroke="#37353E" stroke-width="1.5" stroke-miterlimit="10" points="451.084,323.275 474.799,245 
		499.083,323.275 	"/>
	
		<line fill="none" stroke="#37353E" stroke-width="1.5" stroke-miterlimit="10" x1="519.6" y1="390.992" x2="531.244" y2="429.426"/>
	
		<line fill="none" stroke="#37353E" stroke-width="1.5" stroke-miterlimit="10" x1="551.795" y1="497.259" x2="563.279" y2="535.165"/>
	<polyline fill="none" stroke="#37353E" stroke-width="2" stroke-miterlimit="10" points="583.762,605.27 595.799,645 559,645 	"/>
	<polyline fill="none" stroke="#37353E" stroke-width="2" stroke-miterlimit="10" points="486,645 354,645 366.406,605.27 	"/>
</g>
</svg>
